<svg width="100" height="100" viewBox="0 0 100 100" fill="none" xmlns="http://www.w3.org/2000/svg">
<g clip-path="url(#clip0_229_9)">
<path d="M19.9084 38.7208L47.8069 1.22198C48.0948 0.834593 48.4366 0.527272 48.813 0.317595C49.1893 0.107917 49.5926 -9.52952e-08 50 -5.96822e-08C50.4074 -2.40692e-08 50.8107 0.107917 51.1871 0.317595C51.5634 0.527273 51.9052 0.834593 52.1931 1.22198L80.0916 38.7208C80.6732 39.5026 81 40.5629 81 41.6686C81 42.7742 80.6732 43.8346 80.0916 44.6164C79.5099 45.3982 78.721 45.8374 77.8985 45.8374C77.0759 45.8374 76.287 45.3982 75.7053 44.6164L53.0998 14.2268L53.0998 95.8335C53.0998 96.9385 52.7732 97.9983 52.1919 98.7796C51.6106 99.561 50.8221 100 50 100C49.1779 100 48.3894 99.561 47.8081 98.7796C47.2268 97.9983 46.9002 96.9385 46.9002 95.8335L46.9002 14.2268L24.2947 44.6164C23.713 45.3982 22.9241 45.8374 22.1016 45.8374C21.279 45.8374 20.4901 45.3982 19.9084 44.6164C19.3268 43.8346 19 42.7742 19 41.6686C19 40.5629 19.3268 39.5026 19.9084 38.7208Z" fill="#212121"/>
</g>
<defs>
<clipPath id="clip0_229_9">
<rect width="100" height="100" fill="white" transform="translate(100 100) rotate(-180)"/>
</clipPath>
</defs>
</svg>
