<svg width="100" height="100" viewBox="0 0 100 100" fill="none" xmlns="http://www.w3.org/2000/svg">
<g clip-path="url(#clip0_228_3)">
<path fill-rule="evenodd" clip-rule="evenodd" d="M64.86 10C68.5437 10 72.4354 11.3131 76.0003 12.7625L78.6096 13.8534C84.8482 16.5199 88.3537 22.1156 91.0719 28.2618C95.4835 38.2361 98.5483 51.5334 99.6079 61.6441C100.113 66.4418 100.237 71.2699 99.3306 74.5172C98.3552 77.9868 95.0379 80.4412 91.8146 82.3704L90.2203 83.2946L88.5666 84.2339C87.715 84.7188 86.8386 85.1985 85.9672 85.6682L83.3826 87.0318L79.8326 88.8347L76.9757 90.269C76.3921 90.59 75.7511 90.7882 75.091 90.8518C74.4308 90.9154 73.7649 90.843 73.1327 90.6391C72.5004 90.4352 71.9148 90.1038 71.4106 89.6646C70.9063 89.2254 70.4936 88.6874 70.1971 88.0824C69.9005 87.4775 69.7261 86.8179 69.6843 86.1429C69.6424 85.468 69.7338 84.7913 69.9532 84.153C70.1726 83.5147 70.5154 82.9279 70.9614 82.4274C71.4073 81.9268 71.9473 81.5228 72.5493 81.2391L76.4608 79.2695L73.589 76.1939C66.7068 79.0726 58.6016 80.7038 49.9913 80.7038C41.3811 80.7038 33.2759 79.0776 26.3936 76.1939L23.5219 79.2645L27.4483 81.2341C28.0302 81.5305 28.5492 81.941 28.9756 82.442C29.402 82.9431 29.7275 83.5249 29.9335 84.1542C30.1395 84.7836 30.2219 85.4481 30.1761 86.11C30.1302 86.7718 29.9571 87.418 29.6664 88.0116C29.3758 88.6051 28.9734 89.1345 28.4821 89.5694C27.9909 90.0044 27.4205 90.3364 26.8035 90.5465C25.5574 90.9708 24.1971 90.8728 23.0218 90.2741L20.3283 88.9105C18.3379 87.9004 16.3426 86.9005 14.372 85.845L9.77722 83.2946L8.18786 82.3704C4.9646 80.4412 1.6423 77.9868 0.671856 74.5172C-0.239176 71.2699 -0.110443 66.4469 0.389634 61.639C1.4492 51.5334 4.51403 38.2361 8.9256 28.2618C11.6438 22.1156 15.1493 16.5199 21.3879 13.8534C25.5272 12.0858 30.5428 10 35.1376 10C38.1232 10 40.4701 12.8029 40.0393 15.7927C43.3342 15.2954 46.6606 15.0473 49.9913 15.0503C53.4127 15.0503 56.7548 15.3028 59.9632 15.7977C59.8678 15.0805 59.9228 14.3508 60.1246 13.6569C60.3264 12.9631 60.6704 12.3208 61.1338 11.7727C61.5972 11.2246 62.1694 10.7831 62.8126 10.4775C63.4559 10.1719 64.1504 10.0092 64.86 10ZM33.8997 42.8268C31.6017 42.8268 29.3978 43.7579 27.7729 45.4153C26.1479 47.0728 25.235 49.3208 25.235 51.6647C25.235 54.0087 26.1479 56.2567 27.7729 57.9141C29.3978 59.5716 31.6017 60.5027 33.8997 60.5027C36.1978 60.5027 38.4017 59.5716 40.0266 57.9141C41.6516 56.2567 42.5644 54.0087 42.5644 51.6647C42.5644 49.3208 41.6516 47.0728 40.0266 45.4153C38.4017 43.7579 36.1978 42.8268 33.8997 42.8268ZM66.0829 42.8268C63.7849 42.8268 61.581 43.7579 59.9561 45.4153C58.3311 47.0728 57.4182 49.3208 57.4182 51.6647C57.4182 54.0087 58.3311 56.2567 59.9561 57.9141C61.581 59.5716 63.7849 60.5027 66.0829 60.5027C68.3809 60.5027 70.5848 59.5716 72.2098 57.9141C73.8347 56.2567 74.7476 54.0087 74.7476 51.6647C74.7476 49.3208 73.8347 47.0728 72.2098 45.4153C70.5848 43.7579 68.3809 42.8268 66.0829 42.8268Z" fill="#212121"/>
</g>
<defs>
<clipPath id="clip0_228_3">
<rect width="100" height="100" fill="white"/>
</clipPath>
</defs>
</svg>
