<svg width="100" height="100" viewBox="0 0 100 100" fill="none" xmlns="http://www.w3.org/2000/svg">
<path d="M0 12.25C0 10.5924 0.658481 9.00269 1.83058 7.83058C3.00269 6.65848 4.5924 6 6.25 6H93.75C95.4076 6 96.9973 6.65848 98.1694 7.83058C99.3415 9.00269 100 10.5924 100 12.25C100 13.9076 99.3415 15.4973 98.1694 16.6694C96.9973 17.8415 95.4076 18.5 93.75 18.5H6.25C4.5924 18.5 3.00269 17.8415 1.83058 16.6694C0.658481 15.4973 0 13.9076 0 12.25ZM0 87.25C0 85.5924 0.658481 84.0027 1.83058 82.8306C3.00269 81.6585 4.5924 81 6.25 81H93.75C95.4076 81 96.9973 81.6585 98.1694 82.8306C99.3415 84.0027 100 85.5924 100 87.25C100 88.9076 99.3415 90.4973 98.1694 91.6694C96.9973 92.8415 95.4076 93.5 93.75 93.5H6.25C4.5924 93.5 3.00269 92.8415 1.83058 91.6694C0.658481 90.4973 0 88.9076 0 87.25ZM43.75 43.5C42.0924 43.5 40.5027 44.1585 39.3306 45.3306C38.1585 46.5027 37.5 48.0924 37.5 49.75C37.5 51.4076 38.1585 52.9973 39.3306 54.1694C40.5027 55.3415 42.0924 56 43.75 56H93.75C95.4076 56 96.9973 55.3415 98.1694 54.1694C99.3415 52.9973 100 51.4076 100 49.75C100 48.0924 99.3415 46.5027 98.1694 45.3306C96.9973 44.1585 95.4076 43.5 93.75 43.5H43.75Z" fill="#212121"/>
</svg>
