<svg width="69" height="100" viewBox="0 0 69 100" fill="none" xmlns="http://www.w3.org/2000/svg">
<path fill-rule="evenodd" clip-rule="evenodd" d="M4.65182 82.6352C7.62139 87.9044 11.9381 92.2893 17.1596 95.3407C22.3811 98.392 28.3197 100 34.367 100C40.4144 100 46.353 98.392 51.5745 95.3407C56.796 92.2893 61.1127 87.9044 64.0823 82.6352C67.1297 77.356 68.7341 71.3675 68.7341 65.2715C68.7341 59.1756 67.1297 53.1871 64.0823 47.9079L37.9472 2.0919C37.5894 1.45711 37.0693 0.928875 36.4402 0.561293C35.8111 0.193712 35.0956 0 34.367 0C33.6385 0 32.923 0.193712 32.2939 0.561293C31.6648 0.928875 31.1447 1.45711 30.7869 2.0919L4.65182 47.9079C1.60437 53.1871 0 59.1756 0 65.2715C0 71.3675 1.60437 77.356 4.65182 82.6352ZM27.0048 23.8887L32.577 14.1199C32.7559 13.8025 33.0159 13.5384 33.3305 13.3546C33.645 13.1708 34.0028 13.074 34.367 13.074C34.7313 13.074 35.0891 13.1708 35.4036 13.3546C35.7182 13.5384 35.9782 13.8025 36.1571 14.1199L57.5941 51.6999C59.5184 55.0319 60.7115 58.7356 61.0938 62.5645C61.4762 66.3935 61.0392 70.26 59.8118 73.9069C59.5452 72.6638 59.1784 71.4443 58.7151 70.2604C55.754 62.6969 49.0588 56.8604 38.8115 52.9122C31.7664 50.2074 27.2692 46.2294 25.4419 41.0872C23.0885 34.4619 25.5466 27.2354 27.0048 23.8887ZM17.503 40.5459L11.14 51.6999C8.75776 55.8264 7.50359 60.5076 7.50359 65.2727C7.50359 70.0378 8.75776 74.7189 11.14 78.8454C13.0658 82.2576 15.7189 85.204 18.9111 87.4752C22.1033 89.7465 25.7562 91.287 29.6105 91.9873C33.4649 92.6877 37.4261 92.5307 41.213 91.5276C44.9998 90.5244 48.5195 88.6997 51.522 86.1829C53.1812 81.94 53.2404 77.2381 51.6887 72.9547C49.5142 67.4902 44.279 63.1277 36.1294 59.9857C26.9173 56.4489 20.933 50.9274 18.3443 43.5794C17.9957 42.5884 17.7146 41.5749 17.503 40.5459Z" fill="#81BAEB"/>
</svg>
